
  <svg width="835.5" height="104.25" viewBox="0 0 4456 556" fill="none" xmlns="http://www.w3.org/2000/svg" xmlns:xlink="http://www.w3.org/1999/xlink" version="1.1">
    
        <g transform="translate(0, 0)">
          <svg width="256" height="256" viewBox="0 0 256 256" fill="none" xmlns="http://www.w3.org/2000/svg">
<rect width="256" height="256" rx="60" fill="#F0DB4F"/>
<path d="M67.3117 213.932L86.9027 202.076C90.6821 208.777 94.1202 214.447 102.367 214.447C110.272 214.447 115.256 211.355 115.256 199.327V117.529H139.314V199.667C139.314 224.584 124.708 235.926 103.398 235.926C84.1533 235.926 72.9819 225.959 67.3113 213.93" fill="#323330"/>
<path d="M152.381 211.354L171.969 200.013C177.126 208.434 183.828 214.62 195.684 214.62C205.653 214.62 212.009 209.636 212.009 202.762C212.009 194.514 205.479 191.592 194.481 186.782L188.468 184.203C171.111 176.815 159.597 167.535 159.597 147.945C159.597 129.901 173.345 116.153 194.826 116.153C210.12 116.153 221.118 121.481 229.022 135.4L210.291 147.429C206.166 140.04 201.7 137.119 194.826 137.119C187.78 137.119 183.312 141.587 183.312 147.429C183.312 154.646 187.78 157.568 198.09 162.037L204.104 164.614C224.553 173.379 236.067 182.313 236.067 202.418C236.067 224.072 219.055 235.928 196.2 235.928C173.861 235.928 159.426 225.274 152.381 211.354" fill="#323330"/>
</svg>

        </g>
         
        <g transform="translate(300, 0)">
          <svg xmlns="http://www.w3.org/2000/svg" width="256" height="256" fill="none" viewBox="0 0 256 256"><rect width="256" height="256" fill="#007ACC" rx="60"/><path fill="#fff" d="M56.6112 128.849L56.5299 139.333H73.1902H89.8505L89.8505 186.673V234.012H101.635H113.419V186.673L113.419 139.333H130.079H146.739V129.052C146.739 123.363 146.618 118.609 146.455 118.487C146.333 118.325 126.056 118.243 101.472 118.284L56.7331 118.406L56.6112 128.849Z"/><path fill="#fff" d="M206.567 118.108C213.068 119.734 218.026 122.619 222.577 127.332C224.934 129.852 228.428 134.444 228.713 135.541C228.794 135.866 217.66 143.343 210.915 147.528C210.671 147.691 209.695 146.634 208.598 145.009C205.307 140.214 201.853 138.141 196.57 137.776C188.809 137.247 183.811 141.311 183.852 148.097C183.852 150.088 184.136 151.266 184.949 152.892C186.655 156.427 189.825 158.54 199.781 162.847C218.107 170.731 225.949 175.932 230.826 183.327C236.271 191.576 237.49 204.742 233.792 214.535C229.729 225.181 219.651 232.414 205.469 234.812C201.081 235.584 190.678 235.462 185.965 234.609C175.684 232.78 165.932 227.701 159.918 221.037C157.561 218.436 152.969 211.65 153.254 211.162C153.375 211 154.432 210.35 155.61 209.659C156.748 209.009 161.056 206.53 165.119 204.173L172.474 199.906L174.018 202.182C176.172 205.473 180.885 209.984 183.73 211.487C191.897 215.795 203.113 215.185 208.639 210.228C210.996 208.074 211.971 205.839 211.971 202.548C211.971 199.581 211.605 198.281 210.061 196.046C208.07 193.202 204.007 190.804 192.466 185.806C179.26 180.117 173.571 176.582 168.37 170.974C165.363 167.724 162.518 162.522 161.34 158.174C160.365 154.558 160.121 145.496 160.893 141.839C163.615 129.08 173.246 120.181 187.143 117.539C191.654 116.686 202.137 117.011 206.567 118.108Z"/></svg>
        </g>
         
        <g transform="translate(600, 0)">
          <svg xmlns="http://www.w3.org/2000/svg" width="256" height="256" fill="none" viewBox="0 0 256 256"><rect width="256" height="256" fill="#242938" rx="60"/><path fill="url(#paint0_linear_2_47)" d="M127.279 29C76.5066 29 79.6772 51.018 79.6772 51.018L79.7338 73.8284H128.185V80.6772H60.4893C60.4893 80.6772 28 76.9926 28 128.222C28 179.452 56.3573 177.636 56.3573 177.636H73.2812V153.863C73.2812 153.863 72.369 125.506 101.186 125.506H149.24C149.24 125.506 176.239 125.942 176.239 99.4123V55.5461C176.239 55.5461 180.338 29 127.279 29ZM100.563 44.339C105.384 44.339 109.28 48.2351 109.28 53.0556C109.28 57.8761 105.384 61.7723 100.563 61.7723C95.7426 61.7723 91.8465 57.8761 91.8465 53.0556C91.8465 48.2351 95.7426 44.339 100.563 44.339Z"/><path fill="url(#paint1_linear_2_47)" d="M128.721 227.958C179.493 227.958 176.323 205.941 176.323 205.941L176.266 183.13H127.815V176.281H195.511C195.511 176.281 228 179.966 228 128.736C228 77.5062 199.643 79.323 199.643 79.323H182.719V103.096C182.719 103.096 183.631 131.453 154.814 131.453H106.76C106.76 131.453 79.7607 131.016 79.7607 157.546V201.412C79.7607 201.412 75.6615 227.958 128.721 227.958ZM155.437 212.619C150.616 212.619 146.72 208.723 146.72 203.903C146.72 199.082 150.616 195.186 155.437 195.186C160.257 195.186 164.154 199.082 164.154 203.903C164.154 208.723 160.257 212.619 155.437 212.619Z"/><defs><linearGradient id="paint0_linear_2_47" x1="47.22" x2="146.333" y1="46.896" y2="145.02" gradientUnits="userSpaceOnUse"><stop stop-color="#387EB8"/><stop offset="1" stop-color="#366994"/></linearGradient><linearGradient id="paint1_linear_2_47" x1="108.056" x2="214.492" y1="109.905" y2="210.522" gradientUnits="userSpaceOnUse"><stop stop-color="#FFE052"/><stop offset="1" stop-color="#FFC331"/></linearGradient></defs></svg>
        </g>
         
        <g transform="translate(900, 0)">
          <svg xmlns="http://www.w3.org/2000/svg" width="256" height="256" fill="none" viewBox="0 0 256 256"><rect width="256" height="256" fill="#E14E1D" rx="60"/><path fill="#fff" d="M48 38L56.6098 134.593H167.32L163.605 176.023L127.959 185.661L92.38 176.037L90.0012 149.435H57.9389L62.5236 200.716L127.951 218.888L193.461 200.716L202.244 102.655H85.8241L82.901 69.9448H205.041H205.139L208 38H48Z"/><path fill="#EBEBEB" d="M128 38H48L56.6098 134.593H128V102.655H85.8241L82.901 69.9448H128V38Z"/><path fill="#EBEBEB" d="M128 185.647L127.959 185.661L92.38 176.037L90.0012 149.435H57.9388L62.5236 200.716L127.951 218.888L128 218.874V185.647Z"/></svg>
        </g>
         
        <g transform="translate(1200, 0)">
          <svg width="256" height="256" viewBox="0 0 256 256" fill="none" xmlns="http://www.w3.org/2000/svg">
<rect width="256" height="256" rx="60" fill="#0277BD"/>
<path d="M53.7527 102.651L56.6155 134.593H128.096V102.651H53.7527Z" fill="#EBEBEB"/>
<path d="M128.095 38H127.985H48L50.9036 69.9423H128.095V38Z" fill="#EBEBEB"/>
<path d="M128.095 218.841V185.608L127.955 185.645L92.3813 176.04L90.1072 150.564H72.821H58.0425L62.5175 200.718L127.948 218.882L128.095 218.841Z" fill="#EBEBEB"/>
<path d="M167.318 134.593L163.61 176.019L127.985 185.635V218.866L193.468 200.718L193.948 195.321L201.454 111.229L202.233 102.651L208 38H127.985V69.9423H172.994L170.088 102.651H127.985V134.593H167.318Z" fill="white"/>
</svg>

        </g>
         
        <g transform="translate(1500, 0)">
          <svg xmlns="http://www.w3.org/2000/svg" width="256" height="256" fill="none" viewBox="0 0 256 256"><rect width="256" height="256" fill="#242938" rx="60"/><path fill="#00D8FF" d="M128.001 146.951C138.305 146.951 146.657 138.598 146.657 128.295C146.657 117.992 138.305 109.639 128.001 109.639C117.698 109.639 109.345 117.992 109.345 128.295C109.345 138.598 117.698 146.951 128.001 146.951Z"/><path fill-rule="evenodd" stroke="#00D8FF" stroke-width="8.911" d="M128.002 90.3633C153.05 90.3633 176.319 93.9575 193.864 99.9976C215.003 107.275 228 118.306 228 128.295C228 138.704 214.226 150.423 191.525 157.944C174.363 163.63 151.779 166.598 128.002 166.598C103.624 166.598 80.5389 163.812 63.1834 157.881C41.2255 150.376 28 138.506 28 128.295C28 118.387 40.4096 107.441 61.2515 100.175C78.8617 94.0353 102.705 90.3633 127.998 90.3633H128.002Z" clip-rule="evenodd"/><path fill-rule="evenodd" stroke="#00D8FF" stroke-width="8.911" d="M94.9811 109.438C107.495 87.7402 122.232 69.3783 136.23 57.1971C153.094 42.5206 169.144 36.7728 177.796 41.7623C186.813 46.9623 190.084 64.7496 185.259 88.1712C181.614 105.879 172.9 126.925 161.021 147.523C148.842 168.641 134.897 187.247 121.09 199.315C103.619 214.587 86.7284 220.114 77.8833 215.013C69.3003 210.067 66.0181 193.846 70.1356 172.161C73.6145 153.838 82.3451 131.349 94.977 109.438L94.9811 109.438Z" clip-rule="evenodd"/><path fill-rule="evenodd" stroke="#00D8FF" stroke-width="8.911" d="M95.0123 147.578C82.4633 125.904 73.9194 103.962 70.3531 85.7517C66.0602 63.8109 69.0954 47.0355 77.7401 42.0315C86.7485 36.8163 103.792 42.866 121.674 58.7437C135.194 70.7479 149.077 88.8052 160.99 109.383C173.204 130.481 182.358 151.856 185.919 169.844C190.425 192.608 186.778 210.001 177.941 215.116C169.367 220.08 153.676 214.825 136.945 200.427C122.809 188.263 107.685 169.468 95.0123 147.578Z" clip-rule="evenodd"/></svg>
        </g>
         
        <g transform="translate(1800, 0)">
          <svg xmlns="http://www.w3.org/2000/svg" width="256" height="256" fill="none" viewBox="0 0 256 256"><rect width="256" height="256" fill="#242938" rx="60"/><path fill="#81CD39" d="M119.878 31.1164C124.797 28.3008 131.203 28.2883 136.117 31.1164C160.839 45.0855 185.569 59.0332 210.287 73.0108C214.937 75.6296 218.046 80.8038 217.999 86.1608V170.206C218.034 175.785 214.617 181.083 209.712 183.642C185.071 197.535 160.442 211.444 135.805 225.337C130.786 228.207 124.251 227.986 119.387 224.88C112 220.598 104.6 216.336 97.2121 212.058C95.7022 211.158 94.0004 210.442 92.9345 208.978C93.8766 207.708 95.5618 207.55 96.9309 206.995C100.014 206.014 102.847 204.44 105.679 202.913C106.396 202.423 107.27 202.611 107.957 203.049C114.274 206.671 120.536 210.399 126.874 213.986C128.226 214.767 129.595 213.73 130.751 213.086C154.931 199.419 179.141 185.805 203.318 172.134C204.214 171.703 204.709 170.752 204.636 169.771C204.653 142.046 204.64 114.317 204.645 86.5918C204.747 85.4785 204.103 84.455 203.096 83.999C178.541 70.1702 153.997 56.3205 129.446 42.4882C128.575 41.8893 127.426 41.8878 126.554 42.4837C102.002 56.3205 77.4638 70.1832 52.9124 84.011C51.9092 84.4675 51.236 85.4745 51.3554 86.5918C51.3596 114.317 51.3554 142.046 51.3554 169.775C51.2682 170.756 51.801 171.687 52.6906 172.109C59.2422 175.824 65.8024 179.513 72.3582 183.216C76.0516 185.203 80.5863 186.385 84.6555 184.862C88.2463 183.574 90.7633 179.909 90.6948 176.097C90.7288 148.534 90.6778 120.967 90.7203 93.4078C90.6309 92.1841 91.7912 91.1731 92.981 91.2885C96.1292 91.267 99.281 91.2461 102.429 91.297C103.743 91.267 104.647 92.5847 104.485 93.8174C104.472 121.555 104.519 149.293 104.464 177.03C104.472 184.423 101.435 192.467 94.5973 196.084C86.1737 200.447 75.7619 199.522 67.4399 195.338C60.2355 191.742 53.3603 187.498 46.2838 183.646C41.3661 181.101 37.966 175.782 38.0006 170.207V86.1608C37.949 80.6929 41.1825 75.4248 45.9764 72.8445C70.6133 58.9408 95.2461 45.0261 119.878 31.1164Z"/><path fill="#81CD39" d="M141.372 89.3351C152.117 88.6433 163.62 88.9255 173.289 94.2185C180.776 98.2754 184.926 106.789 185.058 115.106C184.849 116.227 183.676 116.846 182.605 116.769C179.488 116.765 176.369 116.812 173.252 116.748C171.929 116.799 171.161 115.58 170.995 114.411C170.099 110.431 167.928 106.49 164.183 104.57C158.433 101.692 151.767 101.837 145.497 101.897C140.92 102.139 135.998 102.536 132.12 105.227C129.143 107.266 128.239 111.382 129.301 114.697C130.303 117.077 133.05 117.845 135.299 118.553C148.248 121.94 161.97 121.602 174.672 126.059C179.931 127.876 185.075 131.409 186.875 136.915C189.23 144.295 188.198 153.115 182.947 159.039C178.689 163.914 172.488 166.568 166.303 168.009C158.075 169.844 149.536 169.891 141.18 169.076C133.323 168.18 125.146 166.116 119.081 160.763C113.894 156.259 111.361 149.241 111.612 142.469C111.672 141.325 112.811 140.527 113.907 140.621C117.046 140.596 120.186 140.587 123.325 140.626C124.58 140.536 125.509 141.62 125.574 142.802C126.152 146.593 127.577 150.573 130.884 152.82C137.264 156.937 145.271 156.655 152.577 156.77C158.63 156.502 165.425 156.421 170.364 152.42C172.97 150.138 173.742 146.32 173.038 143.036C172.275 140.263 169.374 138.971 166.883 138.126C154.1 134.083 140.224 135.55 127.565 130.977C122.425 129.161 117.455 125.727 115.481 120.447C112.726 112.974 113.988 103.73 119.789 98.0061C125.445 92.312 133.609 90.1192 141.372 89.3346V89.3351"/></svg>
        </g>
         
        <g transform="translate(2100, 0)">
          <svg xmlns="http://www.w3.org/2000/svg" width="256" height="256" fill="none" viewBox="0 0 256 256"><rect width="256" height="256" fill="#242938" rx="60"/><path fill="url(#paint0_linear_2_119)" fill-rule="evenodd" d="M83 110C88.9991 86.0009 104.001 74 128 74C164 74 168.5 101 186.5 105.5C198.501 108.501 209 104.001 218 92C212.001 115.999 196.999 128 173 128C137 128 132.5 101 114.5 96.5C102.499 93.4991 92 97.9991 83 110ZM38 164C43.9991 140.001 59.0009 128 83 128C119 128 123.5 155 141.5 159.5C153.501 162.501 164 158.001 173 146C167.001 169.999 151.999 182 128 182C92 182 87.5 155 69.5 150.5C57.4991 147.499 47 151.999 38 164Z" clip-rule="evenodd"/><defs><linearGradient id="paint0_linear_2_119" x1="86.5" x2="163.5" y1="74" y2="185.5" gradientUnits="userSpaceOnUse"><stop stop-color="#32B1C1"/><stop offset="1" stop-color="#14C6B7"/></linearGradient></defs></svg>
        </g>
         
        <g transform="translate(2400, 0)">
          <svg xmlns="http://www.w3.org/2000/svg" width="256" height="256" fill="none" viewBox="0 0 256 256"><rect width="256" height="256" fill="#023430" rx="60"/><path fill="#10AA50" d="M171.173 107.591C160.636 61.1097 138.676 48.7357 133.074 39.9886C130.764 36.1353 128.717 32.1299 126.949 28C126.653 32.1292 126.109 34.7307 122.599 37.862C115.552 44.1454 85.6217 68.5354 83.1028 121.348C80.756 170.59 119.303 200.953 124.395 204.092C128.311 206.019 133.08 204.133 135.407 202.364C153.988 189.612 179.376 155.614 171.193 107.591"/><path fill="#B8C4C2" d="M128.545 177.871C127.575 190.059 126.88 197.141 124.416 204.106C124.416 204.106 126.033 215.709 127.169 228H131.188C132.147 219.345 133.61 210.753 135.572 202.268C130.369 199.708 128.745 188.566 128.545 177.871Z"/><path fill="#12924F" d="M135.565 202.275C130.307 199.846 128.786 188.469 128.552 177.871C129.852 160.388 130.231 142.849 129.688 125.326C129.412 116.132 129.818 40.1676 127.423 29.0461C129.062 32.8129 130.949 36.4662 133.074 39.9818C138.676 48.7358 160.643 61.1097 171.173 107.591C179.376 155.532 154.126 189.44 135.565 202.275Z"/></svg>
        </g>
         
        <g transform="translate(2700, 0)">
          <svg xmlns="http://www.w3.org/2000/svg" width="256" height="256" fill="none" viewBox="0 0 256 256"><rect width="256" height="256" fill="#242938" rx="60"/><path fill="#41B883" d="M182 50H218L128 205.25L38 50H73.55H106.85L128 86L148.7 50H182Z"/><path fill="#41B883" d="M38 50L128 205.25L218 50H182L128 143.15L73.55 50H38Z"/><path fill="#fff" d="M73.55 50L128 143.6L182 50H148.7L128 86L106.85 50H73.55Z"/></svg>
        </g>
         
        <g transform="translate(3000, 0)">
          <svg xmlns="http://www.w3.org/2000/svg" width="256" height="256" fill="none" viewBox="0 0 256 256"><rect width="256" height="256" fill="#242938" rx="60"/><path fill="#fff" d="M228 182.937C225.089 184.04 221.875 184.037 218.965 182.931C216.056 181.824 213.652 179.69 212.209 176.932C203.146 163.365 193.138 150.41 183.519 137.177L179.348 131.617C167.894 146.963 156.44 161.697 145.987 176.988C144.625 179.624 142.352 181.675 139.59 182.759C136.828 183.844 133.766 183.887 130.975 182.882L173.955 125.223L133.977 73.1236C136.855 72.0845 140.003 72.0702 142.89 73.0832C145.777 74.0962 148.226 76.0744 149.824 78.6838C159.109 92.2506 169.396 105.206 179.626 118.94C189.913 105.317 200.088 92.3062 209.596 78.8506C210.965 76.2574 213.24 74.258 215.988 73.2328C218.735 72.2076 221.764 72.2281 224.497 73.2904L208.984 93.8631C202.034 103.037 195.195 112.267 187.967 121.219C187.384 121.741 186.918 122.379 186.599 123.093C186.28 123.807 186.115 124.58 186.115 125.362C186.115 126.143 186.28 126.916 186.599 127.63C186.918 128.344 187.384 128.982 187.967 129.504C201.256 147.13 214.433 164.811 228 182.937V182.937Z"/><path fill="#fff" d="M28 124.5C29.1676 118.94 29.8905 112.879 31.5029 107.208C41.122 73.0129 80.3214 58.7788 107.288 79.9632C123.079 92.3624 127.027 109.933 126.249 129.727H37.2855C35.8399 165.09 61.3611 186.441 93.9994 175.543C99.2938 173.649 104.033 170.467 107.79 166.283C111.547 162.099 114.202 157.045 115.517 151.578C117.241 146.018 120.021 145.073 125.303 146.685C124.433 153.454 122.04 159.938 118.303 165.649C114.567 171.36 109.584 176.149 103.73 179.657C94.0573 184.947 82.96 187.042 72.0247 185.644C61.0894 184.246 50.8763 179.426 42.8457 171.873C34.9011 162.94 30.0973 151.654 29.1676 139.735C29.1676 137.845 28.4448 135.954 28.0556 134.175C28.0185 130.876 28 127.651 28 124.5ZM37.3967 122.109H117.853C117.352 96.4769 101.172 78.2951 79.5986 78.1283C55.5785 77.7947 38.3976 95.5873 37.3411 121.998L37.3967 122.109Z"/></svg>
        </g>
         
        <g transform="translate(3300, 0)">
          <svg xmlns="http://www.w3.org/2000/svg" width="256" height="256" fill="none" viewBox="0 0 256 256"><rect width="256" height="256" fill="#E43717" rx="60"/><g clip-path="url(#clip0_5_31)"><path fill="url(#paint0_linear_5_31)" fill-rule="evenodd" d="M177.454 156.477L74.6851 217.5L207.751 208.471L218 74.2944L177.454 156.477Z" clip-rule="evenodd"/><path fill="url(#paint1_linear_5_31)" fill-rule="evenodd" d="M207.969 208.379L196.532 129.44L165.379 170.577L207.969 208.379Z" clip-rule="evenodd"/><path fill="url(#paint2_linear_5_31)" fill-rule="evenodd" d="M208.124 208.379L124.334 201.802L75.1301 217.329L208.124 208.379Z" clip-rule="evenodd"/><path fill="url(#paint3_linear_5_31)" fill-rule="evenodd" d="M75.2482 217.346L96.1799 148.773L50.1193 158.622L75.2482 217.346Z" clip-rule="evenodd"/><path fill="url(#paint4_linear_5_31)" fill-rule="evenodd" d="M165.371 170.804L146.111 95.3623L90.9924 147.028L165.371 170.804Z" clip-rule="evenodd"/><path fill="url(#paint5_linear_5_31)" fill-rule="evenodd" d="M213.63 96.4253L161.528 53.8714L147.019 100.777L213.63 96.4253Z" clip-rule="evenodd"/><path fill="url(#paint6_linear_5_31)" fill-rule="evenodd" d="M189.264 38.6995L158.621 55.6339L139.288 38.4724L189.264 38.6995Z" clip-rule="evenodd"/><path fill="url(#paint7_linear_5_31)" fill-rule="evenodd" d="M38 181.624L50.837 158.212L40.4529 130.321L38 181.624Z" clip-rule="evenodd"/><path fill="#fff" fill-rule="evenodd" d="M39.7625 129.44L50.2101 159.075L95.6076 148.89L147.437 100.722L162.064 54.262L139.033 38L99.8766 52.654C87.5402 64.1283 63.6013 86.8316 62.7383 87.2586C61.8843 87.6946 46.9305 115.958 39.7625 129.44Z" clip-rule="evenodd"/><path fill="url(#paint8_linear_5_31)" fill-rule="evenodd" d="M76.4475 76.2022C103.184 49.6923 137.653 34.0299 150.88 47.3757C164.1 60.7215 150.081 93.1547 123.344 119.655C96.607 146.156 62.5657 162.682 49.3471 149.336C36.1194 135.999 49.7105 102.703 76.4475 76.2022V76.2022Z" clip-rule="evenodd"/><path fill="url(#paint9_linear_5_31)" fill-rule="evenodd" d="M75.2483 217.319L96.0165 148.527L164.989 170.686C140.051 194.07 112.315 213.839 75.2483 217.319Z" clip-rule="evenodd"/><path fill="url(#paint10_linear_5_31)" fill-rule="evenodd" d="M147.528 100.586L165.235 170.722C186.066 148.818 204.763 125.27 213.92 96.1436L147.528 100.586V100.586Z" clip-rule="evenodd"/><path fill="url(#paint11_linear_5_31)" fill-rule="evenodd" d="M213.739 96.498C220.825 75.112 222.461 44.4322 189.045 38.7359L161.627 53.8805L213.739 96.498V96.498Z" clip-rule="evenodd"/><path fill="#9E1209" fill-rule="evenodd" d="M38 181.315C38.9812 216.611 64.4463 217.137 75.2937 217.447L50.2374 158.93L38 181.315Z" clip-rule="evenodd"/><path fill="url(#paint12_radial_5_31)" fill-rule="evenodd" d="M147.627 100.695C163.635 110.534 195.896 130.294 196.55 130.657C197.567 131.23 210.459 108.917 213.385 96.3072L147.627 100.695V100.695Z" clip-rule="evenodd"/><path fill="url(#paint13_radial_5_31)" fill-rule="evenodd" d="M95.9893 148.527L123.753 202.092C140.169 193.189 153.025 182.342 164.799 170.722L95.9893 148.527Z" clip-rule="evenodd"/><path fill="url(#paint14_linear_5_31)" fill-rule="evenodd" d="M50.1284 159.002L46.1946 205.844C53.617 215.983 63.8285 216.864 74.5396 216.074C66.7901 196.787 51.3094 158.221 50.1284 159.002V159.002Z" clip-rule="evenodd"/><path fill="url(#paint15_linear_5_31)" fill-rule="evenodd" d="M161.464 53.9986L216.619 61.7389C213.676 49.2653 204.636 41.2161 189.228 38.6995L161.464 53.9986Z" clip-rule="evenodd"/></g><defs><linearGradient id="paint0_linear_5_31" x1="196.145" x2="158.172" y1="233.825" y2="166.782" gradientUnits="userSpaceOnUse"><stop stop-color="#FB7655"/><stop offset=".41" stop-color="#E42B1E"/><stop offset=".99" stop-color="#900"/><stop offset="1" stop-color="#900"/></linearGradient><linearGradient id="paint1_linear_5_31" x1="215.061" x2="166.123" y1="177.506" y2="144.666" gradientUnits="userSpaceOnUse"><stop stop-color="#871101"/><stop offset=".99" stop-color="#911209"/><stop offset="1" stop-color="#911209"/></linearGradient><linearGradient id="paint2_linear_5_31" x1="175.905" x2="126.969" y1="235.857" y2="203.017" gradientUnits="userSpaceOnUse"><stop stop-color="#871101"/><stop offset=".99" stop-color="#911209"/><stop offset="1" stop-color="#911209"/></linearGradient><linearGradient id="paint3_linear_5_31" x1="73.155" x2="80.742" y1="153.734" y2="203.038" gradientUnits="userSpaceOnUse"><stop stop-color="#fff"/><stop offset=".23" stop-color="#E57252"/><stop offset=".46" stop-color="#DE3B20"/><stop offset=".99" stop-color="#A60003"/><stop offset="1" stop-color="#A60003"/></linearGradient><linearGradient id="paint4_linear_5_31" x1="125.336" x2="128.131" y1="107.695" y2="158.014" gradientUnits="userSpaceOnUse"><stop stop-color="#fff"/><stop offset=".23" stop-color="#E4714E"/><stop offset=".56" stop-color="#BE1A0D"/><stop offset=".99" stop-color="#A80D00"/><stop offset="1" stop-color="#A80D00"/></linearGradient><linearGradient id="paint5_linear_5_31" x1="171.642" x2="180.01" y1="61.186" y2="97.249" gradientUnits="userSpaceOnUse"><stop stop-color="#fff"/><stop offset=".18" stop-color="#E46342"/><stop offset=".4" stop-color="#C82410"/><stop offset=".99" stop-color="#A80D00"/><stop offset="1" stop-color="#A80D00"/></linearGradient><linearGradient id="paint6_linear_5_31" x1="146.089" x2="182.15" y1="48.485" y2="30.455" gradientUnits="userSpaceOnUse"><stop stop-color="#fff"/><stop offset=".54" stop-color="#C81F11"/><stop offset=".99" stop-color="#BF0905"/><stop offset="1" stop-color="#BF0905"/></linearGradient><linearGradient id="paint7_linear_5_31" x1="41.546" x2="44.514" y1="141.164" y2="170.879" gradientUnits="userSpaceOnUse"><stop stop-color="#fff"/><stop offset=".31" stop-color="#DE4024"/><stop offset=".99" stop-color="#BF190B"/><stop offset="1" stop-color="#BF190B"/></linearGradient><linearGradient id="paint8_linear_5_31" x1="21.142" x2="160.661" y1="178.912" y2="35.448" gradientUnits="userSpaceOnUse"><stop stop-color="#BD0012"/><stop offset=".07" stop-color="#fff"/><stop offset=".17" stop-color="#fff"/><stop offset=".27" stop-color="#C82F1C"/><stop offset=".33" stop-color="#820C01"/><stop offset=".46" stop-color="#A31601"/><stop offset=".72" stop-color="#B31301"/><stop offset=".99" stop-color="#E82609"/><stop offset="1" stop-color="#E82609"/></linearGradient><linearGradient id="paint9_linear_5_31" x1="128.009" x2="85.985" y1="193.383" y2="183.011" gradientUnits="userSpaceOnUse"><stop stop-color="#8C0C01"/><stop offset=".54" stop-color="#990C00"/><stop offset=".99" stop-color="#A80D0E"/><stop offset="1" stop-color="#A80D0E"/></linearGradient><linearGradient id="paint10_linear_5_31" x1="200.19" x2="162.857" y1="142.944" y2="109.484" gradientUnits="userSpaceOnUse"><stop stop-color="#7E110B"/><stop offset=".99" stop-color="#9E0C00"/><stop offset="1" stop-color="#9E0C00"/></linearGradient><linearGradient id="paint11_linear_5_31" x1="213.906" x2="195.31" y1="81.55" y2="61.67" gradientUnits="userSpaceOnUse"><stop stop-color="#79130D"/><stop offset=".99" stop-color="#9E120B"/><stop offset="1" stop-color="#9E120B"/></linearGradient><radialGradient id="paint12_radial_5_31" cx="0" cy="0" r="1" gradientTransform="translate(168.67 110.124) scale(45.7496)" gradientUnits="userSpaceOnUse"><stop stop-color="#A80D00"/><stop offset=".99" stop-color="#7E0E08"/><stop offset="1" stop-color="#7E0E08"/></radialGradient><radialGradient id="paint13_radial_5_31" cx="0" cy="0" r="1" gradientTransform="translate(105.313 170.414) scale(60.818)" gradientUnits="userSpaceOnUse"><stop stop-color="#A30C00"/><stop offset=".99" stop-color="#800E08"/><stop offset="1" stop-color="#800E08"/></radialGradient><linearGradient id="paint14_linear_5_31" x1="62.229" x2="47.075" y1="217.279" y2="165.863" gradientUnits="userSpaceOnUse"><stop stop-color="#8B2114"/><stop offset=".43" stop-color="#9E100A"/><stop offset=".99" stop-color="#B3100C"/><stop offset="1" stop-color="#B3100C"/></linearGradient><linearGradient id="paint15_linear_5_31" x1="178.491" x2="212.466" y1="46.901" y2="61.899" gradientUnits="userSpaceOnUse"><stop stop-color="#B31000"/><stop offset=".44" stop-color="#910F08"/><stop offset=".99" stop-color="#791C12"/><stop offset="1" stop-color="#791C12"/></linearGradient><clipPath id="clip0_5_31"><rect width="180" height="179.5" fill="#fff" transform="translate(38 38)"/></clipPath></defs></svg>
        </g>
         
        <g transform="translate(3600, 0)">
          <svg xmlns="http://www.w3.org/2000/svg" width="256" height="256" fill="none" viewBox="0 0 256 256"><rect width="256" height="256" fill="#242938" rx="60"/><path fill="#2489CA" d="M33.7158 100.208C33.7158 100.208 28.9814 96.795 34.6627 92.2381L47.8994 80.402C47.8994 80.402 51.6869 76.4172 55.6915 79.8891L177.84 172.368V216.714C177.84 216.714 177.781 223.678 168.844 222.908L33.7158 100.208Z"/><path fill="#1070B3" d="M65.1997 128.792L33.7157 157.415C33.7157 157.415 30.4805 159.822 33.7157 164.123L48.3333 177.418C48.3333 177.418 51.8052 181.147 56.9341 176.905L90.3119 151.596L65.1997 128.792Z"/><path fill="#0877B9" d="M120.474 129.029L178.215 84.9391L177.84 40.83C177.84 40.83 175.374 31.2033 167.148 36.2139L90.312 106.145L120.474 129.029Z"/><path fill="#3C99D4" d="M168.844 222.968C172.198 226.4 176.262 225.276 176.262 225.276L221.259 203.103C227.019 199.177 226.21 194.305 226.21 194.305V61.8982C226.21 56.0788 220.252 54.0667 220.252 54.0667L181.253 35.267C172.731 30 167.148 36.2139 167.148 36.2139C167.148 36.2139 174.328 31.0455 177.84 40.83V215.905C177.84 217.109 177.583 218.292 177.071 219.358C176.045 221.429 173.816 223.362 168.47 222.553L168.844 222.968Z"/></svg>
        </g>
         
        <g transform="translate(3900, 0)">
          <svg width="256" height="256" viewBox="0 0 256 256" fill="none" xmlns="http://www.w3.org/2000/svg">
<rect width="256" height="256" rx="60" fill="#242938"/>
<path fill-rule="evenodd" clip-rule="evenodd" d="M46 71.0063L88.5954 28V227.957L46 185.45V71.0063Z" fill="url(#paint0_linear_306_17)"/>
<path fill-rule="evenodd" clip-rule="evenodd" d="M210.584 71.4104L167.406 28.0225L168.282 227.958L210.878 185.45L210.584 71.4104Z" fill="url(#paint1_linear_306_17)"/>
<path fill-rule="evenodd" clip-rule="evenodd" d="M88.5672 28.0332L199.309 197.012L168.32 228L57.5195 59.3947L88.5672 28.0332Z" fill="url(#paint2_linear_306_17)"/>
<path fill-rule="evenodd" clip-rule="evenodd" d="M88.6046 106.416L88.5462 113.072L54.3527 62.5927L57.5193 59.3677L88.6046 106.416Z" fill="black" fill-opacity="0.13"/>
<defs>
<linearGradient id="paint0_linear_306_17" x1="67.2972" y1="28" x2="67.2972" y2="227.958" gradientUnits="userSpaceOnUse">
<stop stop-color="#16B0ED" stop-opacity="0.8"/>
<stop offset="1" stop-color="#0F59B2" stop-opacity="0.837"/>
</linearGradient>
<linearGradient id="paint1_linear_306_17" x1="189.14" y1="28.0225" x2="189.14" y2="227.957" gradientUnits="userSpaceOnUse">
<stop stop-color="#7DB643"/>
<stop offset="1" stop-color="#367533"/>
</linearGradient>
<linearGradient id="paint2_linear_306_17" x1="128.414" y1="28.0332" x2="128.414" y2="228.01" gradientUnits="userSpaceOnUse">
<stop stop-color="#88C649" stop-opacity="0.8"/>
<stop offset="1" stop-color="#439240" stop-opacity="0.84"/>
</linearGradient>
</defs>
</svg>

        </g>
         
        <g transform="translate(4200, 0)">
          <svg xmlns="http://www.w3.org/2000/svg" width="256" height="256" fill="none" viewBox="0 0 256 256"><rect width="256" height="256" fill="#300" rx="60"/><path fill="#FF9A00" d="M123.733 152.333H84.053L75.9464 177.4C75.733 178.36 74.8797 179 73.9197 178.893H53.8664C52.693 178.893 52.373 178.253 52.693 176.973L87.0397 78.0935C87.3597 77.0268 87.6797 75.8535 88.1064 74.5735C88.533 72.3335 88.7464 69.9868 88.7464 67.6401C88.6397 67.1068 89.0664 66.5735 89.5997 66.4668H89.9197H117.226C118.08 66.4668 118.506 66.7868 118.613 67.3201L157.546 177.187C157.866 178.36 157.546 178.893 156.48 178.893H134.186C133.44 179 132.693 178.467 132.48 177.72L123.733 152.333V152.333ZM90.2397 130.68H117.333C116.693 128.44 115.84 125.773 114.88 123C113.92 120.12 112.96 117.027 112 113.827C110.933 110.52 109.973 107.32 108.906 104.013C107.84 100.707 106.88 97.6135 106.026 94.5201C105.173 91.5335 104.426 88.7601 103.68 86.2001H103.466C102.506 90.7868 101.333 95.3735 99.8397 99.9601C98.2397 105.08 96.6397 110.413 94.933 115.747C93.4397 121.187 91.8397 126.2 90.2397 130.68V130.68Z"/><path fill="#FF9A00" d="M181.333 85.1334C177.813 85.2401 174.4 83.8534 171.84 81.4001C169.387 78.7334 168.107 75.2134 168.213 71.5868C168.107 67.9601 169.493 64.5468 172.053 62.0934C174.613 59.6401 178.027 58.3601 181.547 58.3601C185.707 58.3601 188.907 59.6401 191.253 62.0934C193.6 64.6534 194.88 68.0668 194.773 71.5868C194.88 75.2134 193.6 78.7334 191.04 81.4001C188.587 83.9601 184.96 85.3468 181.333 85.1334ZM169.387 177.72V95.5868C169.387 94.5201 169.813 94.0934 170.773 94.0934H191.893C192.853 94.0934 193.28 94.6268 193.28 95.5868V177.72C193.28 178.893 192.853 179.427 191.893 179.427H170.987C169.92 179.427 169.387 178.787 169.387 177.72V177.72Z"/></svg>
        </g>
         
        <g transform="translate(0, 300)">
          <svg xmlns="http://www.w3.org/2000/svg" width="256" height="256" fill="none" viewBox="0 0 256 256"><rect width="256" height="256" fill="#242938" rx="60"/><path fill="#fff" d="M101.634 182.619C101.634 182.619 93.9548 187.293 106.979 188.63C122.707 190.634 131.023 190.299 148.386 186.962C148.386 186.962 153.06 189.971 159.406 192.306C120.331 209.002 70.9089 191.304 101.634 182.619ZM96.6252 160.914C96.6252 160.914 88.2753 167.26 101.299 168.593C118.327 170.262 131.69 170.597 154.732 165.926C154.732 165.926 157.741 169.267 162.747 170.936C115.664 184.961 62.8975 172.269 96.6252 160.917V160.914ZM188.795 198.984C188.795 198.984 194.471 203.658 182.449 207.334C160.073 214.012 88.6104 216.019 68.5735 207.334C61.564 204.325 74.9197 199.982 79.2587 199.319C83.6012 198.317 85.9366 198.317 85.9366 198.317C78.2569 192.973 34.8424 209.337 63.8959 214.046C143.709 227.073 209.499 208.37 188.792 199.018L188.795 198.984ZM105.307 138.203C105.307 138.203 68.9052 146.888 92.2793 149.89C102.298 151.223 122 150.892 140.368 149.555C155.396 148.221 170.458 145.548 170.458 145.548C170.458 145.548 165.113 147.886 161.441 150.222C124.342 159.915 53.2107 155.573 73.5827 145.554C90.9526 137.204 105.307 138.203 105.307 138.203V138.203ZM170.423 174.604C207.83 155.234 190.46 136.534 178.438 138.873C175.429 139.54 174.096 140.207 174.096 140.207C174.096 140.207 175.097 138.203 177.436 137.54C201.145 129.19 219.849 162.586 169.757 175.61C169.757 175.61 170.092 175.275 170.423 174.608V174.604ZM108.979 227.364C145.046 229.703 200.147 226.03 201.484 208.995C201.484 208.995 198.817 215.673 171.764 220.683C141.042 226.359 102.968 225.692 80.5957 222.016C80.5957 222.016 85.2698 226.023 108.982 227.36L108.979 227.364Z"/><path fill="#F58219" d="M147.685 28C147.685 28 168.389 49.0388 127.983 80.7594C95.5891 106.472 120.632 121.168 127.983 137.861C108.948 120.833 95.2609 105.802 104.606 91.7762C118.331 71.0828 156.062 61.0644 147.685 28ZM137 123.842C146.683 134.862 134.333 144.881 134.333 144.881C134.333 144.881 159.044 132.195 147.692 116.494C137.338 101.466 129.324 94.1184 172.738 69.0689C172.738 69.0689 104.278 86.0968 137.007 123.835L137 123.842Z"/></svg>
        </g>
         
        <g transform="translate(300, 300)">
          <svg xmlns="http://www.w3.org/2000/svg" width="256" height="256" fill="none" viewBox="0 0 256 256"><rect width="256" height="256" fill="#5865F2" rx="60"/><g clip-path="url(#clip0_158_82)"><path fill="#fff" d="M197.308 64.7966C184.561 58.9476 170.892 54.6383 156.599 52.1701C156.339 52.1225 156.079 52.2415 155.945 52.4796C154.187 55.6064 152.239 59.6856 150.876 62.8918C135.503 60.5904 120.21 60.5904 105.153 62.8918C103.789 59.6143 101.771 55.6064 100.005 52.4796C99.8707 52.2495 99.6107 52.1305 99.3504 52.1701C85.0659 54.6304 71.3963 58.9397 58.6411 64.7966C58.5307 64.8442 58.4361 64.9236 58.3732 65.0267C32.4449 103.763 25.3421 141.547 28.8265 178.863C28.8423 179.046 28.9447 179.22 29.0867 179.331C46.1934 191.894 62.7642 199.521 79.0273 204.576C79.2876 204.655 79.5634 204.56 79.729 204.346C83.5761 199.092 87.0054 193.553 89.9456 187.728C90.1192 187.386 89.9535 186.982 89.5989 186.847C84.1594 184.783 78.98 182.268 73.9977 179.411C73.6037 179.181 73.5721 178.617 73.9347 178.347C74.9831 177.561 76.0318 176.744 77.033 175.919C77.2141 175.768 77.4665 175.736 77.6794 175.831C110.411 190.775 145.846 190.775 178.191 175.831C178.404 175.728 178.657 175.76 178.846 175.911C179.847 176.736 180.895 177.561 181.952 178.347C182.314 178.617 182.291 179.181 181.897 179.411C176.914 182.323 171.735 184.783 166.288 186.839C165.933 186.974 165.775 187.386 165.949 187.728C168.952 193.545 172.381 199.084 176.157 204.338C176.315 204.56 176.599 204.655 176.859 204.576C193.201 199.521 209.772 191.894 226.879 179.331C227.028 179.22 227.123 179.053 227.139 178.871C231.309 135.73 220.154 98.2554 197.568 65.0346C197.513 64.9236 197.419 64.8442 197.308 64.7966ZM94.8335 156.142C84.9792 156.142 76.8594 147.095 76.8594 135.984C76.8594 124.873 84.8217 115.826 94.8335 115.826C104.924 115.826 112.965 124.953 112.807 135.984C112.807 147.095 104.845 156.142 94.8335 156.142ZM161.29 156.142C151.435 156.142 143.316 147.095 143.316 135.984C143.316 124.873 151.278 115.826 161.29 115.826C171.38 115.826 179.421 124.953 179.264 135.984C179.264 147.095 171.38 156.142 161.29 156.142Z"/></g><defs><clipPath id="clip0_158_82"><rect width="200" height="154.93" fill="#fff" transform="translate(28 51)"/></clipPath></defs></svg>
        </g>
         
        <g transform="translate(600, 300)">
          <svg width="256" height="256" viewBox="0 0 256 256" fill="none" xmlns="http://www.w3.org/2000/svg">
<rect width="256" height="256" rx="60" fill="url(#paint0_radial_206_683)"/>
<rect width="256" height="256" rx="60" fill="url(#paint1_radial_206_683)"/>
<path d="M128.009 28C100.851 28 97.4424 28.1188 86.7756 28.6042C76.1297 29.0917 68.8629 30.7771 62.5045 33.2501C55.9274 35.8042 50.3481 39.221 44.7898 44.7814C39.2272 50.3398 35.8105 55.919 33.248 62.4941C30.7688 68.8546 29.0813 76.1234 28.6021 86.7652C28.125 97.432 28 100.842 28 128.001C28 155.16 28.1208 158.558 28.6042 169.224C29.0938 179.87 30.7792 187.137 33.2501 193.495C35.8063 200.073 39.223 205.652 44.7835 211.21C50.3398 216.773 55.919 220.198 62.492 222.752C68.8546 225.225 76.1234 226.91 86.7673 227.398C97.4341 227.883 100.84 228.002 127.997 228.002C155.158 228.002 158.556 227.883 169.222 227.398C179.868 226.91 187.143 225.225 193.506 222.752C200.081 220.198 205.652 216.773 211.208 211.21C216.771 205.652 220.187 200.073 222.75 193.498C225.208 187.137 226.896 179.868 227.396 169.226C227.875 158.56 228 155.16 228 128.001C228 100.842 227.875 97.4341 227.396 86.7673C226.896 76.1213 225.208 68.8546 222.75 62.4962C220.187 55.919 216.771 50.3398 211.208 44.7814C205.646 39.2189 200.083 35.8022 193.5 33.2501C187.125 30.7771 179.854 29.0917 169.208 28.6042C158.541 28.1188 155.145 28 127.978 28H128.009ZM119.038 46.021C121.701 46.0169 124.672 46.021 128.009 46.021C154.71 46.021 157.874 46.1169 168.418 46.596C178.168 47.0419 183.46 48.671 186.985 50.0398C191.652 51.8523 194.979 54.019 198.477 57.5191C201.977 61.0191 204.143 64.3525 205.96 69.0192C207.329 72.54 208.96 77.8318 209.404 87.5819C209.883 98.1236 209.987 101.29 209.987 127.978C209.987 154.666 209.883 157.833 209.404 168.374C208.958 178.124 207.329 183.416 205.96 186.937C204.148 191.604 201.977 194.927 198.477 198.425C194.977 201.925 191.654 204.091 186.985 205.904C183.464 207.279 178.168 208.904 168.418 209.35C157.876 209.829 154.71 209.933 128.009 209.933C101.307 209.933 98.1424 209.829 87.6006 209.35C77.8505 208.9 72.5588 207.271 69.0317 205.902C64.365 204.089 61.0316 201.923 57.5316 198.423C54.0315 194.923 51.8648 191.598 50.0481 186.929C48.6794 183.408 47.0481 178.116 46.6044 168.366C46.1252 157.824 46.0294 154.658 46.0294 127.953C46.0294 101.249 46.1252 98.0986 46.6044 87.5569C47.0502 77.8068 48.6794 72.515 50.0481 68.99C51.8607 64.3233 54.0315 60.9899 57.5316 57.4899C61.0316 53.9899 64.365 51.8232 69.0317 50.0065C72.5567 48.6315 77.8505 47.0064 87.6006 46.5585C96.8257 46.1419 100.401 46.0169 119.038 45.996V46.021ZM181.389 62.6254C174.764 62.6254 169.389 67.9942 169.389 74.6213C169.389 81.2464 174.764 86.6214 181.389 86.6214C188.014 86.6214 193.389 81.2464 193.389 74.6213C193.389 67.9962 188.014 62.6212 181.389 62.6212V62.6254ZM128.009 76.6463C99.6487 76.6463 76.6547 99.6403 76.6547 128.001C76.6547 156.362 99.6487 179.345 128.009 179.345C156.37 179.345 179.356 156.362 179.356 128.001C179.356 99.6403 156.368 76.6463 128.007 76.6463H128.009ZM128.009 94.6674C146.418 94.6674 161.343 109.59 161.343 128.001C161.343 146.41 146.418 161.335 128.009 161.335C109.599 161.335 94.6757 146.41 94.6757 128.001C94.6757 109.59 109.599 94.6674 128.009 94.6674V94.6674Z" fill="white"/>
<defs>
<radialGradient id="paint0_radial_206_683" cx="0" cy="0" r="1" gradientUnits="userSpaceOnUse" gradientTransform="translate(68.0003 275.717) rotate(-90) scale(253.715 235.975)">
<stop stop-color="#FFDD55"/>
<stop offset="0.1" stop-color="#FFDD55"/>
<stop offset="0.5" stop-color="#FF543E"/>
<stop offset="1" stop-color="#C837AB"/>
</radialGradient>
<radialGradient id="paint1_radial_206_683" cx="0" cy="0" r="1" gradientUnits="userSpaceOnUse" gradientTransform="translate(-42.8814 18.4418) rotate(78.6806) scale(113.412 467.488)">
<stop stop-color="#3771C8"/>
<stop offset="0.128" stop-color="#3771C8"/>
<stop offset="1" stop-color="#6600FF" stop-opacity="0"/>
</radialGradient>
</defs>
</svg>

        </g>
         
        <g transform="translate(900, 300)">
          <svg width="256" height="256" viewBox="0 0 256 256" fill="none" xmlns="http://www.w3.org/2000/svg">
<rect width="256" height="256" rx="60" fill="#242938"/>
<path d="M128.001 30C72.7791 30 28 74.7708 28 130.001C28 174.184 56.6533 211.668 96.3867 224.891C101.384 225.817 103.219 222.722 103.219 220.081C103.219 217.696 103.126 209.819 103.083 201.463C75.2631 207.512 69.3927 189.664 69.3927 189.664C64.8437 178.105 58.2894 175.032 58.2894 175.032C49.2163 168.825 58.9733 168.953 58.9733 168.953C69.0151 169.658 74.3026 179.258 74.3026 179.258C83.2217 194.546 97.6965 190.126 103.403 187.571C104.301 181.107 106.892 176.696 109.752 174.199C87.5405 171.67 64.1913 163.095 64.1913 124.778C64.1913 113.86 68.0977 104.939 74.4947 97.9362C73.4564 95.4175 70.0335 85.2465 75.4635 71.4722C75.4635 71.4722 83.8609 68.7845 102.971 81.7226C110.948 79.5069 119.502 78.3958 128.001 78.3577C136.499 78.3958 145.061 79.5069 153.052 81.7226C172.139 68.7845 180.525 71.4722 180.525 71.4722C185.968 85.2465 182.544 95.4175 181.505 97.9362C187.917 104.939 191.797 113.86 191.797 124.778C191.797 163.187 168.403 171.644 146.135 174.119C149.722 177.223 152.918 183.308 152.918 192.638C152.918 206.018 152.802 216.787 152.802 220.081C152.802 222.742 154.602 225.86 159.671 224.878C199.383 211.64 228 174.169 228 130.001C228 74.7708 183.227 30 128.001 30ZM65.4536 172.453C65.2333 172.95 64.4517 173.099 63.7396 172.758C63.0143 172.432 62.6069 171.754 62.8421 171.256C63.0574 170.744 63.8406 170.602 64.5643 170.945C65.2913 171.271 65.7053 171.955 65.4536 172.453ZM70.3725 176.842C69.8956 177.285 68.9633 177.079 68.3307 176.38C67.6766 175.683 67.554 174.751 68.0376 174.302C68.5294 173.86 69.4336 174.067 70.0893 174.764C70.7434 175.47 70.8709 176.395 70.3725 176.842ZM73.7471 182.458C73.1344 182.884 72.1325 182.485 71.5132 181.595C70.9004 180.706 70.9004 179.64 71.5264 179.212C72.1474 178.785 73.1344 179.169 73.762 180.052C74.373 180.956 74.373 182.023 73.7471 182.458ZM79.4542 188.962C78.9061 189.566 77.7386 189.404 76.8841 188.579C76.0098 187.773 75.7663 186.629 76.3161 186.024C76.8709 185.418 78.045 185.589 78.9061 186.407C79.7738 187.211 80.0387 188.364 79.4542 188.962ZM86.8301 191.157C86.5883 191.941 85.4639 192.297 84.3312 191.964C83.2002 191.621 82.46 190.704 82.6885 189.912C82.9237 189.124 84.053 188.753 85.194 189.109C86.3234 189.45 87.0652 190.361 86.8301 191.157ZM95.2242 192.089C95.2523 192.913 94.2919 193.597 93.1029 193.612C91.9073 193.639 90.9402 192.971 90.9269 192.16C90.9269 191.327 91.8659 190.65 93.0615 190.63C94.2505 190.607 95.2242 191.269 95.2242 192.089ZM103.47 191.773C103.613 192.577 102.787 193.404 101.606 193.624C100.445 193.836 99.3702 193.339 99.2229 192.541C99.0788 191.716 99.92 190.89 101.079 190.676C102.262 190.471 103.32 190.955 103.47 191.773Z" fill="white"/>
</svg>

        </g>
         
        <g transform="translate(1200, 300)">
          <svg width="256" height="256" viewBox="0 0 256 256" fill="none" xmlns="http://www.w3.org/2000/svg">
<rect width="256" height="256" rx="60" fill="white"/>
<rect width="256" height="256" rx="60" fill="#0A66C2"/>
<path d="M184.715 217.685H213.985C216.194 217.685 217.985 215.895 217.985 213.686L218 151.844C218 119.521 211.035 94.6755 173.262 94.6755C158.903 94.1423 145.362 101.544 138.055 113.904C137.997 114.002 137.893 114.062 137.779 114.062C137.603 114.062 137.46 113.919 137.46 113.743V101.66C137.46 99.4511 135.67 97.6602 133.46 97.6602H105.683C103.474 97.6602 101.683 99.4511 101.683 101.66V213.68C101.683 215.89 103.474 217.68 105.683 217.68H134.951C137.16 217.68 138.951 215.89 138.951 213.68V158.307C138.951 142.65 141.921 127.487 161.332 127.487C180.467 127.487 180.715 145.403 180.715 159.321V213.685C180.715 215.894 182.506 217.685 184.715 217.685Z" fill="white"/>
<path d="M38 59.6275C38 71.4921 47.7675 81.2539 59.6321 81.2539C71.4944 81.2528 81.2551 71.4853 81.2551 59.623C81.2528 47.7607 71.491 38 59.6275 38C47.763 38 38 47.763 38 59.6275Z" fill="white"/>
<path d="M44.9588 217.685H74.2659C76.4751 217.685 78.2659 215.894 78.2659 213.685V101.66C78.2659 99.4511 76.4751 97.6602 74.2659 97.6602H44.9588C42.7497 97.6602 40.9588 99.4511 40.9588 101.66V213.685C40.9588 215.894 42.7497 217.685 44.9588 217.685Z" fill="white"/>
</svg>

        </g>
         
        <g transform="translate(1500, 300)">
          <svg width="256" height="256" viewBox="0 0 256 256" fill="none" xmlns="http://www.w3.org/2000/svg">
<rect width="256" height="256" rx="60" fill="white"/>
<rect width="256" height="256" rx="60" fill="#1D9BF0"/>
<path d="M199.572 91.4114C199.682 92.9983 199.682 94.5851 199.682 96.1866C199.682 144.984 162.534 201.262 94.607 201.262V201.232C74.5411 201.262 54.8921 195.514 38 184.677C40.9177 185.028 43.8501 185.203 46.7898 185.21C63.4186 185.225 79.5722 179.645 92.6545 169.371C76.8519 169.071 62.9945 158.768 58.1536 143.726C63.6892 144.794 69.3931 144.574 74.8263 143.09C57.5978 139.609 45.2029 124.472 45.2029 106.892C45.2029 106.731 45.2029 106.578 45.2029 106.424C50.3364 109.283 56.0841 110.87 61.9634 111.046C45.7367 100.201 40.7349 78.6144 50.5338 61.7368C69.2834 84.8081 96.947 98.8337 126.644 100.318C123.667 87.4919 127.733 74.0513 137.327 65.0348C152.201 51.0531 175.594 51.7697 189.576 66.6363C197.846 65.0056 205.773 61.9708 213.027 57.671C210.271 66.2195 204.501 73.4809 196.793 78.0952C204.113 77.2323 211.265 75.2725 218 72.2816C213.042 79.7112 206.797 86.1829 199.572 91.4114Z" fill="white"/>
</svg>

        </g>
         
        <g transform="translate(1800, 300)">
          <svg width="256" height="256" viewBox="0 0 256 256" fill="none" xmlns="http://www.w3.org/2000/svg">
<rect width="256" height="256" rx="60" fill="black"/>
<path fill-rule="evenodd" clip-rule="evenodd" d="M87.3749 147.217C87.3749 157.436 81.0804 172.918 61.1561 172.886H36V83H61.6874C80.9015 83 87.3641 98.4608 87.3695 108.685L87.3749 147.217ZM62.582 99.8189C64.6856 99.8189 66.7946 100.607 68.8982 102.182C70.9963 103.757 72.0535 106.126 72.0589 109.277V147.114C72.0589 150.27 71.0071 152.633 68.9036 154.209C66.8 155.784 64.691 156.572 62.5874 156.572H53.1268V99.8189H62.582Z" fill="white"/>
<path d="M141.959 99.0529H113.073V119.924H130.731V135.988H113.073V156.854H141.965V172.918H108.253C102.203 173.076 97.1717 168.284 97.0199 162.222V94.2561C96.8735 88.1989 101.661 83.1684 107.706 83.0163H141.965L141.959 99.0529Z" fill="white"/>
<path d="M198.149 161.684C190.992 178.389 178.17 175.064 172.429 161.684L151.539 83.0217H169.197L185.305 144.8L201.336 83.0217H219L198.149 161.684Z" fill="white"/>
</svg>

        </g>
         
        <g transform="translate(2100, 300)">
          <svg width="256" height="256" viewBox="0 0 256 256" fill="none" xmlns="http://www.w3.org/2000/svg">
<rect width="256" height="256" rx="60" fill="#242938"/>
<path d="M41.6364 203.028H73.4545V125.755L28 91.6646V189.392C28 196.937 34.1136 203.028 41.6364 203.028Z" fill="#4285F4"/>
<path d="M182.545 203.028H214.364C221.909 203.028 228 196.915 228 189.392V91.6646L182.545 125.755" fill="#34A853"/>
<path d="M182.545 66.6643V125.755L228 91.6643V73.4825C228 56.6189 208.75 47.0052 195.273 57.1189" fill="#FBBC04"/>
<path d="M73.4545 125.755V66.6646L128 107.574L182.545 66.6646V125.755L128 166.665" fill="#EA4335"/>
<path d="M28 73.4825V91.6643L73.4545 125.755V66.6643L60.7273 57.1189C47.2273 47.0052 28 56.6189 28 73.4825Z" fill="#C5221F"/>
</svg>

        </g>
         
        <g transform="translate(2400, 300)">
          <svg xmlns="http://www.w3.org/2000/svg" width="256" height="256" fill="none" viewBox="0 0 256 256"><rect width="256" height="256" fill="#F03C2E" rx="60"/><g clip-path="url(#clip0_7_283)"><path fill="#fff" d="M224.225 119.094L136.906 31.775C135.711 30.5787 134.291 29.6298 132.729 28.9824C131.166 28.3349 129.491 28.0017 127.8 28.0017C126.109 28.0017 124.434 28.3349 122.871 28.9824C121.309 29.6298 119.889 30.5787 118.694 31.775L100.569 49.9L123.569 72.9C128.919 71.025 135.044 72.3062 139.306 76.5687C141.335 78.6014 142.752 81.1638 143.394 83.9632C144.036 86.7626 143.878 89.6862 142.937 92.4L165.106 114.569C170.469 112.719 176.656 113.912 180.937 118.206C182.361 119.63 183.49 121.32 184.26 123.18C185.03 125.04 185.426 127.033 185.426 129.046C185.425 131.059 185.029 133.052 184.258 134.912C183.487 136.771 182.358 138.461 180.934 139.884C179.511 141.308 177.821 142.436 175.961 143.206C174.101 143.977 172.108 144.373 170.095 144.372C168.082 144.372 166.088 143.975 164.229 143.205C162.369 142.434 160.679 141.305 159.256 139.881C154.756 135.381 153.644 128.756 155.919 123.212L135.244 102.537V156.944C136.745 157.686 138.116 158.666 139.306 159.844C140.729 161.267 141.858 162.956 142.629 164.816C143.399 166.675 143.795 168.668 143.795 170.681C143.795 172.694 143.399 174.687 142.629 176.546C141.858 178.406 140.729 180.096 139.306 181.519C137.883 182.942 136.193 184.071 134.334 184.841C132.474 185.611 130.481 186.008 128.469 186.008C126.456 186.008 124.463 185.611 122.604 184.841C120.744 184.071 119.054 182.942 117.631 181.519C116.206 180.096 115.076 178.407 114.305 176.548C113.533 174.688 113.136 172.694 113.136 170.681C113.136 168.668 113.533 166.675 114.305 164.815C115.076 162.955 116.206 161.266 117.631 159.844C119.112 158.369 120.756 157.25 122.65 156.5V101.587C120.825 100.837 119.112 99.7312 117.631 98.2437C115.479 96.0943 114.016 93.3526 113.428 90.3684C112.841 87.3841 113.155 84.2924 114.331 81.4875L91.6437 58.8125L31.7687 118.625C30.5716 119.821 29.6219 121.241 28.9739 122.804C28.3259 124.367 27.9924 126.042 27.9924 127.734C27.9924 129.426 28.3259 131.102 28.9739 132.665C29.6219 134.228 30.5716 135.648 31.7687 136.844L119.094 224.156C120.289 225.352 121.709 226.301 123.271 226.949C124.834 227.596 126.509 227.929 128.2 227.929C129.891 227.929 131.566 227.596 133.129 226.949C134.691 226.301 136.111 225.352 137.306 224.156L224.225 137.375C225.422 136.179 226.372 134.759 227.02 133.196C227.668 131.633 228.001 129.958 228.001 128.266C228.001 126.574 227.668 124.898 227.02 123.335C226.372 121.772 225.422 120.352 224.225 119.156"/></g><defs><clipPath id="clip0_7_283"><rect width="200" height="200" fill="#fff" transform="translate(28 28)"/></clipPath></defs></svg>
        </g>
         
        <g transform="translate(2700, 300)">
          <svg width="256" height="256" viewBox="0 0 256 256" fill="none" xmlns="http://www.w3.org/2000/svg">
<g clip-path="url(#clip0_33_480)">
<path d="M196 0H60C26.8629 0 0 26.8629 0 60V196C0 229.137 26.8629 256 60 256H196C229.137 256 256 229.137 256 196V60C256 26.8629 229.137 0 196 0Z" fill="#242938"/>
<path d="M40 65.6631L110.968 55.9983L111 124.453L40.0656 124.857L40 65.6631ZM110.935 132.34L110.99 200.855L40.0557 191.102L40.0517 131.881L110.935 132.34ZM119.537 54.7335L213.636 41V123.582L119.537 124.33V54.7335ZM213.658 132.984L213.636 215.195L119.537 201.914L119.406 132.831L213.658 132.984Z" fill="#00ADEF"/>
</g>
<defs>
<clipPath id="clip0_33_480">
<rect width="256" height="256" fill="white"/>
</clipPath>
</defs>
</svg>

        </g>
         
        <g transform="translate(3000, 300)">
          <svg xmlns="http://www.w3.org/2000/svg" width="256" height="256" fill="none" viewBox="0 0 256 256"><rect width="256" height="256" fill="#242938" rx="60"/><path fill="#ECEFF1" d="M85.9493 199.926L110.48 213.546H147.576L182.278 187.491L197.834 146.632L161.935 103.405L151.764 79.1268L102.104 80.9032L102.702 94.5228L93.1291 112.287L78.1713 141.303L75.1797 165.581L85.9493 199.926Z"/><path fill="#263238" d="M187.064 114.656C177.491 101.036 169.713 92.7463 165.525 75.5738C161.337 58.4013 166.722 63.1386 163.132 48.3347C161.337 40.6367 158.345 35.3073 155.354 31.1622C151.764 27.0171 147.576 24.6485 145.182 24.0563C139.798 21.0956 127.233 16.3583 111.677 24.6485C95.5223 32.9387 97.3172 50.7033 100.309 86.8248C100.309 89.1934 99.7105 92.1542 98.5139 94.5228C96.1206 99.8522 91.9324 104.589 88.3425 108.735C84.1543 114.656 79.9661 120.578 76.9746 127.091C69.7948 140.711 63.2134 157.883 65.0083 164.397C67.9999 163.805 105.694 220.652 105.694 221.836C108.087 221.244 118.258 221.244 127.233 221.244C139.798 220.652 146.977 220.06 157.149 222.428C157.149 220.652 156.55 218.875 156.55 217.099C156.55 213.546 157.149 210.585 157.747 206.44C158.345 203.479 158.944 200.519 159.542 196.966C153.559 202.295 142.789 208.217 132.618 209.993C123.643 211.769 108.685 208.809 101.505 199.926C102.104 199.926 103.3 199.926 103.899 199.334C105.694 198.742 107.489 198.15 108.087 196.966C109.882 194.005 108.685 191.044 107.489 189.268C106.292 187.491 97.3173 180.977 93.1291 177.425C88.9409 173.872 86.5476 172.095 84.1544 169.727C84.1544 169.727 80.5645 166.174 79.3678 164.989C78.1712 163.805 77.5729 162.621 76.9746 162.028C75.778 159.068 75.1796 155.515 75.778 150.778C76.3763 144.264 78.7695 138.934 81.7611 133.013C82.9577 130.644 85.9493 125.907 85.9493 125.907C85.9493 125.907 75.778 150.778 81.1628 158.476C81.1628 158.476 81.7611 150.778 84.1544 143.08C85.9493 137.75 88.9409 130.052 92.5307 125.907C96.1206 121.762 105.095 106.366 105.694 96.8914C105.694 92.7463 106.292 88.6012 106.292 85.6405C103.899 83.2718 145.781 77.3503 148.174 83.864C148.772 86.2326 157.149 107.55 161.935 118.801C164.328 124.131 167.32 128.868 169.115 134.789C170.91 141.303 172.106 150.185 172.106 159.068C172.106 160.844 172.106 163.805 171.508 166.766C172.705 166.766 196.039 141.895 168.517 121.17C168.517 121.17 185.269 128.868 185.868 144.264C186.466 156.699 181.081 166.766 179.885 168.542C180.483 168.542 192.449 173.872 193.047 173.872C195.441 173.872 200.227 172.095 200.227 172.095C200.826 170.319 202.62 165.581 202.62 163.805C206.809 150.185 196.637 128.276 187.064 114.656V114.656Z"/><path fill="#ECEFF1" d="M111.078 75.5738C115.374 75.5738 118.856 70.2714 118.856 63.7307C118.856 57.1899 115.374 51.8876 111.078 51.8876C106.783 51.8876 103.3 57.1899 103.3 63.7307C103.3 70.2714 106.783 75.5738 111.078 75.5738Z"/><path fill="#ECEFF1" d="M138.002 76.7581C143.62 76.7581 148.174 70.6604 148.174 63.1386C148.174 55.6167 143.62 49.519 138.002 49.519C132.385 49.519 127.831 55.6167 127.831 63.1386C127.831 70.6604 132.385 76.7581 138.002 76.7581Z"/><path fill="#212121" d="M115.424 64.5411C114.927 60.6476 112.663 57.7241 110.368 58.0111C108.074 58.2982 106.616 61.6872 107.114 65.5807C107.611 69.4741 109.874 72.3977 112.169 72.1106C114.464 71.8235 115.921 68.4345 115.424 64.5411Z"/><path fill="#212121" d="M137.404 73.2052C140.709 73.2052 143.387 69.7587 143.387 65.5072C143.387 61.2557 140.709 57.8091 137.404 57.8091C134.1 57.8091 131.421 61.2557 131.421 65.5072C131.421 69.7587 134.1 73.2052 137.404 73.2052Z"/><path fill="#FFC107" d="M216.98 195.781C214.587 194.597 210.398 192.82 206.808 187.491C205.014 184.53 205.612 176.24 202.62 172.687C200.825 170.319 198.432 171.503 197.834 171.503C192.449 172.687 179.884 180.977 171.508 171.503C170.311 170.319 168.516 168.542 165.525 168.542C162.533 168.542 161.337 169.726 160.14 172.095C158.943 174.464 158.943 176.24 158.943 182.162C158.943 186.899 158.943 192.228 158.345 196.373C157.148 206.44 155.354 212.362 155.354 218.283C155.354 224.797 157.148 228.942 159.542 230.718C161.337 232.495 164.328 233.679 170.91 233.679C177.491 233.679 181.679 231.311 185.868 227.165C188.859 224.205 191.252 223.02 199.629 217.099C206.21 212.954 216.382 207.624 218.176 205.848C219.373 204.664 221.168 204.071 221.168 200.518C221.168 197.558 218.775 196.373 216.98 195.781V195.781Z"/><path fill="#FFC107" d="M96.7189 197.558C90.7357 188.083 90.1374 186.307 85.9492 180.385C82.3593 174.464 74.5813 163.213 69.7948 163.213C66.2049 163.213 64.4099 164.989 62.0167 167.358C59.6234 169.726 57.2302 175.056 53.042 178.017C49.4521 180.977 39.2808 180.385 36.8875 183.938C34.4942 187.491 39.2808 192.821 39.2808 201.703C39.2808 205.256 36.2892 207.624 35.6909 209.993C35.0926 212.954 34.4942 214.73 35.6909 217.099C38.0841 220.652 41.0757 221.836 61.4184 225.981C72.188 228.35 82.3593 234.271 88.9408 234.864C95.5222 235.456 106.89 234.864 106.89 218.875C107.489 209.401 102.104 207.032 96.7189 197.558Z"/><path fill="#FFC107" d="M108.087 90.3777C104.497 88.0091 101.505 85.6404 101.505 82.0875C101.505 78.5346 103.899 77.3503 107.489 74.3895C108.087 73.7973 114.668 67.8758 121.25 67.8758C127.831 67.8758 135.609 72.0209 138.601 73.2052C143.986 74.3895 149.37 75.5738 148.772 79.7189C148.174 85.6404 147.576 86.8248 141.592 89.7855C137.404 90.9698 129.626 97.4835 124.241 97.4835C121.848 97.4835 118.258 97.4835 115.865 96.8914C114.07 96.2992 111.078 93.3385 108.087 90.3777V90.3777Z"/><path fill="#634703" d="M106.89 85.6405C108.087 86.8248 109.882 88.0091 111.677 88.6012C112.873 89.1934 114.668 89.7856 114.668 89.7856C117.062 89.7856 118.857 89.7856 120.053 89.7856C123.045 89.7856 127.233 88.6013 131.421 86.2326C135.609 84.4562 136.208 83.2718 139.199 82.0875C142.191 80.3111 145.182 78.5346 143.986 77.9425C142.789 77.3503 141.592 77.9425 137.404 80.3111C133.814 82.6797 130.823 83.864 127.233 85.6405C125.438 86.2326 123.045 87.4169 121.25 87.4169C119.455 87.4169 117.66 87.4169 115.865 87.4169C114.07 87.4169 112.873 86.8248 111.078 86.2326C109.882 85.6405 109.283 85.0483 108.685 85.0483C107.489 84.4562 105.095 82.0875 103.899 81.4954C103.899 81.4954 102.702 81.4954 103.3 82.0875C105.095 83.864 105.694 84.4562 106.89 85.6405Z"/><path fill="#634703" d="M124.84 72.613C125.438 73.7973 126.635 73.7973 127.233 74.3895C127.831 74.9816 128.429 74.9816 128.429 74.9816C129.028 74.3895 128.429 73.2052 127.831 73.2052C127.831 72.0209 124.84 72.0209 124.84 72.613V72.613Z"/><path fill="#634703" d="M115.267 73.7973C115.267 74.3895 116.463 74.9816 116.463 74.3895C117.062 73.7973 117.66 73.2052 118.258 73.2052C119.455 72.613 118.856 72.0209 117.062 72.0209C115.865 72.613 115.865 73.2052 115.267 73.7973V73.7973Z"/><path fill="#455A64" d="M173.303 178.609C173.303 179.201 173.303 179.793 173.303 180.385C174.5 182.754 177.491 183.346 179.884 183.346C183.474 183.346 187.064 180.977 188.859 178.609C188.859 178.017 189.457 177.424 190.056 176.832C191.252 175.056 191.851 173.872 192.449 173.279C192.449 173.279 191.851 172.687 191.851 172.095C191.252 170.911 189.457 169.726 187.064 169.134C185.269 168.542 182.278 167.95 181.081 167.95C175.696 167.358 172.705 169.134 170.91 170.911C170.91 170.911 171.508 170.911 171.508 171.503C172.705 172.687 173.303 173.872 173.303 175.648C173.901 176.832 173.303 177.424 173.303 178.609V178.609Z"/></svg>
        </g>
         
        <g transform="translate(3300, 300)">
          <svg width="256" height="256" viewBox="0 0 256 256" fill="none" xmlns="http://www.w3.org/2000/svg">
<rect width="256" height="256" rx="60" fill="#242938"/>
<path d="M53 49.25C53 43.037 58.037 38 64.25 38H116.75C122.963 38 128 43.037 128 49.25V98.0001H64.25C58.037 98.0001 53 92.9631 53 86.7501V49.25Z" fill="#F26207"/>
<path d="M127.999 98.002H191.749C197.962 98.002 202.999 103.039 202.999 109.252V146.752C202.999 152.965 197.962 158.002 191.749 158.002H127.999V98.002Z" fill="#F26207"/>
<path d="M53 169.25C53 163.037 58.037 158 64.25 158H128V206.75C128 212.963 122.963 218 116.75 218H64.25C58.037 218 53 212.963 53 206.75V169.25Z" fill="#F26207"/>
</svg>

        </g>
         
        <g transform="translate(3600, 300)">
          <svg width="256" height="256" viewBox="0 0 256 256" fill="none" xmlns="http://www.w3.org/2000/svg">
<rect width="256" height="256" rx="60" fill="#242938"/>
<path d="M128 34L223 198.853H33L128 34Z" fill="white"/>
</svg>

        </g>
         
        <g transform="translate(3900, 300)">
          <svg width="256" height="256" viewBox="0 0 256 256" fill="none" xmlns="http://www.w3.org/2000/svg">
<g clip-path="url(#clip0_33_568)">
<path d="M196 0H60C26.8629 0 0 26.8629 0 60V196C0 229.137 26.8629 256 60 256H196C229.137 256 256 229.137 256 196V60C256 26.8629 229.137 0 196 0Z" fill="#242938"/>
<path d="M46.2923 52.0292C45.4801 52.0189 44.6754 52.1832 43.9347 52.5107C43.1941 52.8382 42.5355 53.3208 42.0052 53.9247C41.4748 54.5286 41.0856 55.2392 40.8649 56.0065C40.6442 56.7738 40.5973 57.5792 40.7275 58.3662L64.3512 199.125C64.6454 200.848 65.5487 202.413 66.9023 203.547C68.2558 204.681 69.9732 205.31 71.7526 205.325H185.084C186.418 205.341 187.714 204.887 188.735 204.045C189.756 203.203 190.435 202.029 190.649 200.736L214.273 58.3935C214.403 57.6065 214.356 56.8012 214.135 56.034C213.914 55.2669 213.525 54.5565 212.994 53.9527C212.464 53.3489 211.805 52.8664 211.065 52.5391C210.324 52.2117 209.52 52.0475 208.707 52.0578L46.2923 52.0292ZM145.767 153.761H109.594L99.7999 103.537H154.532L145.767 153.761Z" fill="#2684FF"/>
<path d="M206.616 103.467H154.431L145.673 153.651H109.529L66.852 203.371C68.2047 204.519 69.9292 205.157 71.7173 205.172H184.987C186.32 205.188 187.614 204.735 188.635 203.893C189.655 203.052 190.334 201.879 190.547 200.587L206.616 103.467Z" fill="url(#paint0_linear_33_568)"/>
</g>
<defs>
<linearGradient id="paint0_linear_33_568" x1="39228.9" y1="3347.5" x2="23538.7" y2="23660.6" gradientUnits="userSpaceOnUse">
<stop offset="0.18" stop-color="#0052CC"/>
<stop offset="1" stop-color="#2684FF"/>
</linearGradient>
<clipPath id="clip0_33_568">
<rect width="256" height="256" fill="white"/>
</clipPath>
</defs>
</svg>

        </g>
         
        <g transform="translate(4200, 300)">
          undefined
        </g>
        
  </svg>
  